<?xml version="1.0" encoding="UTF-8"?> <!-- Generator: Adobe Illustrator 27.0.0, SVG Export Plug-In . SVG Version: 6.00 Build 0) --> <svg xmlns="http://www.w3.org/2000/svg" xmlns:xlink="http://www.w3.org/1999/xlink" version="1.1" id="Capa_1" x="0px" y="0px" viewBox="0 0 59.4 21.7" style="enable-background:new 0 0 59.4 21.7;" xml:space="preserve"> <style type="text/css"> .st0{fill:#3D3C38;} </style> <path class="st0" d="M8.3,4.9c-0.5,0-0.6,0-0.6,0.5v7.2h0c0,2.4,0,4.8,0,7.1c0,0.4-0.1,0.5-0.5,0.5c-0.8,0-1.5,0-2.3,0 c-0.3,0-0.5-0.1-0.5-0.5c0-4.8,0-9.5,0-14.3c0-0.6,0-0.6-0.6-0.6c-0.9,0-1.7,0-2.5,0C1,4.9,1,4.7,1,4.5C1,3.7,1,3,1,2.3 c0-0.4,0.1-0.5,0.5-0.5c2.8,0,5.6,0,8.5,0c0.3,0,0.6,0,0.9,0c0.2,0,0.3,0.1,0.3,0.3c0,0.8,0,1.6,0,2.4c0,0.3-0.2,0.4-0.4,0.4 C10,4.9,9.2,4.9,8.3,4.9z M18,11.5c1.6,0,3.2,0,4.8,0c0.6,0,0.7,0,0.6,0.7v1.7c0,0.5-0.1,0.6-0.6,0.6c-1.6,0-3.2,0-4.8,0 c-0.6,0-0.6,0-0.6,0.6c0,0.3,0,0.7,0,1c0,0.7,0.4,1,1.2,1c1.4,0,2.9,0,4.3,0c0.4,0,0.5,0.1,0.5,0.5c0,0.8,0,1.5,0,2.3 c0,0.2,0,0.4-0.3,0.4c-1.8,0-3.7,0.1-5.5-0.1c-2-0.3-3-1.6-3.2-3.5c-0.1-0.6-0.2-1.3-0.1-1.9c0-0.2-0.1-0.3-0.3-0.3 c-0.2,0-0.4,0-0.6,0c-0.5,0.1-0.8-0.1-1-0.5c-0.4-0.7-0.8-1.4-1.3-2c-0.2-0.3-0.1-0.4,0.2-0.4c0.8,0,1.6,0,2.5,0 c0.4,0,0.6-0.1,0.5-0.5c0,0,0-0.1,0-0.1V6.6c0,0,0,0,0,0c0-1.5,0-2.9,0-4.4c0-0.4,0.1-0.5,0.5-0.5c2.7,0,5.3,0,8,0 c0.6,0,0.6,0,0.6,0.6c0,0.7,0,1.3,0,2c0,0.5-0.1,0.6-0.5,0.6c-1.6,0-3.3,0-4.9,0c-0.3,0-0.5,0.2-0.5,0.5c0,1.9,0,3.8,0,5.7 C17.4,11.5,17.7,11.5,18,11.5z M35.4,17.7c0,0.7,0,1.4,0,2.1c0,0.3,0,0.5-0.4,0.5c-1.4,0-2.8,0.1-4.2-0.1c-0.9-0.1-1.8-0.3-2.4-0.8 c-0.8-0.7-1.3-1.5-1.5-2.6c-0.2-0.8-0.2-1.6-0.2-2.4c0-4,0-8.1,0-12.1c0-0.6,0-0.6,0.6-0.6c0.7,0,1.4,0,2.1,0c0.4,0,0.5,0.1,0.5,0.5 c0,2.2,0,4.4,0,6.6v6.6c0,0.1,0,0.1,0,0.2c0.1,1.1,0.4,1.4,1.5,1.5c1.1,0,2.3,0,3.4,0C35.4,17.1,35.4,17.1,35.4,17.7z M44.8,20.2 c-1.2,0-2.4,0-3.5,0c-0.8,0-1.5-0.2-2.2-0.5c-1.3-0.6-1.9-1.7-2.2-3.1c-0.1-0.7-0.1-1.4-0.1-2c0-1.8,0-3.7,0-5.5h0V2.4 c0-0.6,0-0.6,0.7-0.6c0.7,0,1.3,0,2,0c0.4,0,0.6,0.1,0.5,0.5c0,4.2,0,8.4,0,12.6c0,0.5-0.1,1,0.2,1.5c0.2,0.3,0.4,0.5,0.7,0.6 c1.3,0.2,2.6,0.1,3.9,0.1c0.6,0,0.6,0,0.6,0.6c0,0.6,0,1.2,0,1.9C45.4,20.2,45.4,20.2,44.8,20.2z M57.9,11V16c0,1.4-0.4,2.6-1.4,3.5 c-0.6,0.6-1.4,1-2.2,1.2c-1.2,0.3-2.3,0.3-3.4,0c-1.6-0.5-2.7-1.6-3.2-3.1c-0.3-0.9-0.2-1.9-0.2-2.9c0-2.7,0-5.5,0-8.2 c0-1,0.1-2,0.6-2.9c0.7-1.4,1.9-2.1,3.3-2.5c1.2-0.3,2.4-0.2,3.5,0.2c1.3,0.5,2.2,1.5,2.7,2.9c0.2,0.7,0.3,1.4,0.3,2.1 C57.9,7.9,57.9,9.4,57.9,11C57.9,11,57.9,11,57.9,11z M54.7,6c-0.1-1.1-0.5-1.5-1.6-1.8c-1.4-0.4-2.5,0.6-2.5,1.8 c-0.1,1.6,0,3.2,0,4.8h0v3.6c0,0.6,0,1.1,0.1,1.7c0.1,0.8,0.5,1.4,1.3,1.6c0.8,0.2,1.5,0.2,2.1-0.4c0.6-0.6,0.6-1.4,0.6-2.1 c0-2,0-4.1,0-6.1C54.8,8,54.8,7,54.7,6z"></path> </svg> 